<svg xmlns="http://www.w3.org/2000/svg" version="1.0" width="1080" height="1080" viewBox="0 0 3000.000000 3000.000000" preserveAspectRatio="xMidYMid meet">

<g transform="translate(0.000000,3000.000000) scale(0.100000,-0.100000)" fill="#000000" stroke="none">
<path d="M7520 21755 c0 -3333 3 -4175 13 -4175 24 -1 4913 431 4935 436 l22 4 0 3955 0 3955 -2485 0 -2485 0 0 -4175z"></path>
<path d="M13907 18023 c-4 -3 -7 -1880 -7 -4170 0 -3093 3 -4163 11 -4163 7 0 320 198 698 440 377 241 1114 713 1636 1048 l950 608 3 3122 2 3122 -1643 0 c-904 0 -1647 -3 -1650 -7z"></path>
<path d="M19605 18018 c-3 -7 -6 -1268 -8 -2803 l-2 -2790 -682 -3 -683 -2 1 -4168 c0 -3580 2 -4164 14 -4147 8 11 372 578 809 1260 l796 1240 0 1645 0 1646 533 468 c292 258 884 777 1314 1155 l782 686 0 2913 1 2912 -1435 0 c-1139 0 -1437 -3 -1440 -12z"></path>
<path d="M7520 8248 l0 -4173 53 55 c30 30 139 143 243 250 104 107 342 353 529 545 187 193 500 514 695 715 195 201 429 442 520 535 91 94 223 229 293 301 l127 131 0 2907 0 2906 -1230 0 -1230 0 0 -4172z"></path>
</g>
</svg>